<?xml version="1.0" ?><!DOCTYPE svg  PUBLIC '-//W3C//DTD SVG 1.1//EN'  'http://www.w3.org/Graphics/SVG/1.1/DTD/svg11.dtd'><svg height="123px" style="enable-background:new 0 0 155 123;" version="1.1" viewBox="0 0 155 123" width="155px" xml:space="preserve" xmlns="http://www.w3.org/2000/svg" xmlns:xlink="http://www.w3.org/1999/xlink"><style type="text/css">
<![CDATA[
	.st0{fill:#EF3E42;}
	.st1{fill:#FFFFFF;}
	.st2{fill:none;}
	.st3{fill-rule:evenodd;clip-rule:evenodd;fill:#FFFFFF;}
]]>
</style><defs/><path d="M135.7,60.1c0-15.2-6.2-29-16.2-39l8-8c12,12,19.5,28.6,19.5,46.9c0,18.3-7.4,34.9-19.5,46.9l-8-8  C129.6,89,135.7,75.3,135.7,60.1L135.7,60.1z M98.9,41.8c4.7,4.7,7.6,11.2,7.6,18.3c0,7.1-2.9,13.6-7.6,18.3l-8-8  c2.7-2.6,4.3-6.3,4.3-10.3c0-4-1.6-7.7-4.3-10.3L98.9,41.8L98.9,41.8z M113.2,27.4c8.4,8.4,13.5,19.9,13.5,32.6  c0,12.7-5.2,24.3-13.5,32.6l-8-8c6.3-6.3,10.2-15,10.2-24.7c0-9.6-3.9-18.3-10.2-24.7L113.2,27.4L113.2,27.4z M12.3,35.9h14.1v48.3  H12.3V35.9L12.3,35.9z M32.3,35.9L81.8,6.5v107.2L32.3,84.2V35.9L32.3,35.9z"/><rect class="st2" height="123" id="_x3C_Slice_x3E__100_" width="155"/></svg>